<mxfile host="app.diagrams.net" agent="Mozilla/5.0 (Windows NT 10.0; Win64; x64; rv:132.0) Gecko/20100101 Firefox/132.0" version="26.0.14">
  <diagram name="Seite-1" id="qBLyt28llzGn92yblXov">
    <mxGraphModel dx="1434" dy="754" grid="1" gridSize="10" guides="1" tooltips="1" connect="1" arrows="1" fold="1" page="1" pageScale="1" pageWidth="827" pageHeight="1169" math="0" shadow="0">
      <root>
        <mxCell id="0" />
        <mxCell id="1" parent="0" />
        <mxCell id="8XsQhPUY6lkMJZYDZPCL-1" value="Kurs" style="swimlane;fontStyle=1;align=center;verticalAlign=top;childLayout=stackLayout;horizontal=1;startSize=26;horizontalStack=0;resizeParent=1;resizeParentMax=0;resizeLast=0;collapsible=1;marginBottom=0;whiteSpace=wrap;html=1;" parent="1" vertex="1">
          <mxGeometry x="580" y="110" width="160" height="130" as="geometry" />
        </mxCell>
        <mxCell id="8XsQhPUY6lkMJZYDZPCL-2" value="&lt;div&gt;- note:int&lt;/div&gt;&lt;div&gt;- unterkurs:boolean&lt;br&gt;&lt;/div&gt;&lt;div&gt;- belegt:boolean&lt;br&gt;&lt;/div&gt;&lt;div&gt;&lt;br&gt;&lt;/div&gt;" style="text;strokeColor=none;fillColor=none;align=left;verticalAlign=top;spacingLeft=4;spacingRight=4;overflow=hidden;rotatable=0;points=[[0,0.5],[1,0.5]];portConstraint=eastwest;whiteSpace=wrap;html=1;" parent="8XsQhPUY6lkMJZYDZPCL-1" vertex="1">
          <mxGeometry y="26" width="160" height="54" as="geometry" />
        </mxCell>
        <mxCell id="8XsQhPUY6lkMJZYDZPCL-3" value="" style="line;strokeWidth=1;fillColor=none;align=left;verticalAlign=middle;spacingTop=-1;spacingLeft=3;spacingRight=3;rotatable=0;labelPosition=right;points=[];portConstraint=eastwest;strokeColor=inherit;" parent="8XsQhPUY6lkMJZYDZPCL-1" vertex="1">
          <mxGeometry y="80" width="160" height="8" as="geometry" />
        </mxCell>
        <mxCell id="8XsQhPUY6lkMJZYDZPCL-4" value="&lt;div&gt;Kurs(int note)&lt;/div&gt;&lt;div&gt;+ getter&lt;br&gt;&lt;/div&gt;" style="text;strokeColor=none;fillColor=none;align=left;verticalAlign=top;spacingLeft=4;spacingRight=4;overflow=hidden;rotatable=0;points=[[0,0.5],[1,0.5]];portConstraint=eastwest;whiteSpace=wrap;html=1;" parent="8XsQhPUY6lkMJZYDZPCL-1" vertex="1">
          <mxGeometry y="88" width="160" height="42" as="geometry" />
        </mxCell>
        <mxCell id="8XsQhPUY6lkMJZYDZPCL-5" value="Fach" style="swimlane;fontStyle=1;align=center;verticalAlign=top;childLayout=stackLayout;horizontal=1;startSize=26;horizontalStack=0;resizeParent=1;resizeParentMax=0;resizeLast=0;collapsible=1;marginBottom=0;whiteSpace=wrap;html=1;" parent="1" vertex="1">
          <mxGeometry x="340" y="110" width="200" height="270" as="geometry" />
        </mxCell>
        <mxCell id="8XsQhPUY6lkMJZYDZPCL-6" value="&lt;div&gt;- fachTyp:FachTyp&lt;/div&gt;&lt;div&gt;- leistungsfach: boolean&lt;/div&gt;&lt;div&gt;- muendlichePruefung:boolean&lt;br&gt;&lt;/div&gt;&lt;div&gt;- halbjahre:Array:Kurs&lt;/div&gt;&lt;div&gt;- anrechnungsprlicht:int&lt;br&gt;&lt;/div&gt;" style="text;strokeColor=none;fillColor=none;align=left;verticalAlign=top;spacingLeft=4;spacingRight=4;overflow=hidden;rotatable=0;points=[[0,0.5],[1,0.5]];portConstraint=eastwest;whiteSpace=wrap;html=1;" parent="8XsQhPUY6lkMJZYDZPCL-5" vertex="1">
          <mxGeometry y="26" width="200" height="64" as="geometry" />
        </mxCell>
        <mxCell id="8XsQhPUY6lkMJZYDZPCL-7" value="" style="line;strokeWidth=1;fillColor=none;align=left;verticalAlign=middle;spacingTop=-1;spacingLeft=3;spacingRight=3;rotatable=0;labelPosition=right;points=[];portConstraint=eastwest;strokeColor=inherit;" parent="8XsQhPUY6lkMJZYDZPCL-5" vertex="1">
          <mxGeometry y="90" width="200" height="8" as="geometry" />
        </mxCell>
        <mxCell id="8XsQhPUY6lkMJZYDZPCL-8" value="&lt;div&gt;Fach(Faecher typ, boolean leistungsfach)&lt;/div&gt;&lt;div&gt;Fach(Faecher typ, boolean leistungsfach, Array halbjahre)&lt;/div&gt;&lt;div&gt;+ getBelegteKurse()&lt;/div&gt;&lt;div&gt;+ getGesamtPunktzahl()&lt;/div&gt;&lt;div&gt;+ getMittelWertPunkte()&lt;/div&gt;&lt;div&gt;+ getFachTyp()&lt;/div&gt;&lt;div&gt;+ isLeistungsfach()&lt;/div&gt;&lt;div&gt;+ getMuendlichePruefung()&lt;br&gt;&lt;/div&gt;&lt;div&gt;+ getAnzahlKurse()&lt;br&gt;&lt;/div&gt;&lt;div&gt;+ getKurs()&lt;br&gt;&lt;/div&gt;" style="text;strokeColor=none;fillColor=none;align=left;verticalAlign=top;spacingLeft=4;spacingRight=4;overflow=hidden;rotatable=0;points=[[0,0.5],[1,0.5]];portConstraint=eastwest;whiteSpace=wrap;html=1;" parent="8XsQhPUY6lkMJZYDZPCL-5" vertex="1">
          <mxGeometry y="98" width="200" height="172" as="geometry" />
        </mxCell>
        <mxCell id="8XsQhPUY6lkMJZYDZPCL-10" value="MoeglichesFach - Enum : int" style="swimlane;fontStyle=0;childLayout=stackLayout;horizontal=1;startSize=26;fillColor=none;horizontalStack=0;resizeParent=1;resizeParentMax=0;resizeLast=0;collapsible=1;marginBottom=0;whiteSpace=wrap;html=1;" parent="1" vertex="1">
          <mxGeometry x="580" y="270" width="200" height="52" as="geometry" />
        </mxCell>
        <mxCell id="8XsQhPUY6lkMJZYDZPCL-11" value="Alle möglichen Fächer" style="text;strokeColor=none;fillColor=none;align=left;verticalAlign=top;spacingLeft=4;spacingRight=4;overflow=hidden;rotatable=0;points=[[0,0.5],[1,0.5]];portConstraint=eastwest;whiteSpace=wrap;html=1;" parent="8XsQhPUY6lkMJZYDZPCL-10" vertex="1">
          <mxGeometry y="26" width="200" height="26" as="geometry" />
        </mxCell>
        <mxCell id="8XsQhPUY6lkMJZYDZPCL-14" value="FachTyp" style="swimlane;fontStyle=0;childLayout=stackLayout;horizontal=1;startSize=26;fillColor=none;horizontalStack=0;resizeParent=1;resizeParentMax=0;resizeLast=0;collapsible=1;marginBottom=0;whiteSpace=wrap;html=1;" parent="1" vertex="1">
          <mxGeometry x="580" y="410" width="210" height="104" as="geometry" />
        </mxCell>
        <mxCell id="8XsQhPUY6lkMJZYDZPCL-15" value="fach:MoeglichesFach" style="text;strokeColor=none;fillColor=none;align=left;verticalAlign=top;spacingLeft=4;spacingRight=4;overflow=hidden;rotatable=0;points=[[0,0.5],[1,0.5]];portConstraint=eastwest;whiteSpace=wrap;html=1;" parent="8XsQhPUY6lkMJZYDZPCL-14" vertex="1">
          <mxGeometry y="26" width="210" height="26" as="geometry" />
        </mxCell>
        <mxCell id="8XsQhPUY6lkMJZYDZPCL-16" value="pflichtanrechnung:int" style="text;strokeColor=none;fillColor=none;align=left;verticalAlign=top;spacingLeft=4;spacingRight=4;overflow=hidden;rotatable=0;points=[[0,0.5],[1,0.5]];portConstraint=eastwest;whiteSpace=wrap;html=1;" parent="8XsQhPUY6lkMJZYDZPCL-14" vertex="1">
          <mxGeometry y="52" width="210" height="26" as="geometry" />
        </mxCell>
        <mxCell id="8XsQhPUY6lkMJZYDZPCL-17" value="anforderungsbereich: Anforderungsbereiche" style="text;strokeColor=none;fillColor=none;align=left;verticalAlign=top;spacingLeft=4;spacingRight=4;overflow=hidden;rotatable=0;points=[[0,0.5],[1,0.5]];portConstraint=eastwest;whiteSpace=wrap;html=1;" parent="8XsQhPUY6lkMJZYDZPCL-14" vertex="1">
          <mxGeometry y="78" width="210" height="26" as="geometry" />
        </mxCell>
        <mxCell id="8XsQhPUY6lkMJZYDZPCL-18" value="Anforderungsbereiche - Enum : int" style="swimlane;fontStyle=0;childLayout=stackLayout;horizontal=1;startSize=26;fillColor=none;horizontalStack=0;resizeParent=1;resizeParentMax=0;resizeLast=0;collapsible=1;marginBottom=0;whiteSpace=wrap;html=1;" parent="1" vertex="1">
          <mxGeometry x="580" y="340" width="200" height="52" as="geometry" />
        </mxCell>
        <mxCell id="8XsQhPUY6lkMJZYDZPCL-19" value="Alle Anforderungsbereiche" style="text;strokeColor=none;fillColor=none;align=left;verticalAlign=top;spacingLeft=4;spacingRight=4;overflow=hidden;rotatable=0;points=[[0,0.5],[1,0.5]];portConstraint=eastwest;whiteSpace=wrap;html=1;" parent="8XsQhPUY6lkMJZYDZPCL-18" vertex="1">
          <mxGeometry y="26" width="200" height="26" as="geometry" />
        </mxCell>
        <mxCell id="8XsQhPUY6lkMJZYDZPCL-22" value="Wahl" style="swimlane;fontStyle=1;align=center;verticalAlign=top;childLayout=stackLayout;horizontal=1;startSize=26;horizontalStack=0;resizeParent=1;resizeParentMax=0;resizeLast=0;collapsible=1;marginBottom=0;whiteSpace=wrap;html=1;" parent="1" vertex="1">
          <mxGeometry x="150" y="110" width="160" height="240" as="geometry" />
        </mxCell>
        <mxCell id="8XsQhPUY6lkMJZYDZPCL-23" value="- faecher:list:Fach" style="text;strokeColor=none;fillColor=none;align=left;verticalAlign=top;spacingLeft=4;spacingRight=4;overflow=hidden;rotatable=0;points=[[0,0.5],[1,0.5]];portConstraint=eastwest;whiteSpace=wrap;html=1;" parent="8XsQhPUY6lkMJZYDZPCL-22" vertex="1">
          <mxGeometry y="26" width="160" height="26" as="geometry" />
        </mxCell>
        <mxCell id="8XsQhPUY6lkMJZYDZPCL-24" value="" style="line;strokeWidth=1;fillColor=none;align=left;verticalAlign=middle;spacingTop=-1;spacingLeft=3;spacingRight=3;rotatable=0;labelPosition=right;points=[];portConstraint=eastwest;strokeColor=inherit;" parent="8XsQhPUY6lkMJZYDZPCL-22" vertex="1">
          <mxGeometry y="52" width="160" height="8" as="geometry" />
        </mxCell>
        <mxCell id="8XsQhPUY6lkMJZYDZPCL-25" value="&lt;div&gt;Wahl()&lt;/div&gt;&lt;div&gt;+ addFach(Fach)&lt;br&gt;&lt;/div&gt;&lt;div&gt;+ getAnzahlKurse()&lt;br&gt;&lt;/div&gt;&lt;div&gt;+ getFach(FachTyp fachTyp)&lt;/div&gt;&lt;div&gt;+ removeFach(FachTyp fachTyp)&lt;/div&gt;&lt;div&gt;+ addList(List faecher)&lt;/div&gt;&lt;div&gt;+ checkForError() : string (für User Output)&lt;/div&gt;&lt;div&gt;+ getOptimizedScore()&lt;br&gt;&lt;/div&gt;&lt;div&gt;&lt;br&gt;&lt;/div&gt;" style="text;strokeColor=none;fillColor=none;align=left;verticalAlign=top;spacingLeft=4;spacingRight=4;overflow=hidden;rotatable=0;points=[[0,0.5],[1,0.5]];portConstraint=eastwest;whiteSpace=wrap;html=1;" parent="8XsQhPUY6lkMJZYDZPCL-22" vertex="1">
          <mxGeometry y="60" width="160" height="180" as="geometry" />
        </mxCell>
      </root>
    </mxGraphModel>
  </diagram>
</mxfile>
